<svg width="1920" height="1080" viewBox="0 0 1920 1080" fill="none" xmlns="http://www.w3.org/2000/svg">
  <!-- Background -->
  <rect width="1920" height="1080" fill="#000000"/>
  
  <!-- Abstract geometric pattern suggesting data visualization -->
  <g opacity="0.3">
    <!-- Grid lines -->
    <line x1="480" y1="0" x2="480" y2="1080" stroke="#ffffff" stroke-width="1"/>
    <line x1="960" y1="0" x2="960" y2="1080" stroke="#ffffff" stroke-width="1"/>
    <line x1="1440" y1="0" x2="1440" y2="1080" stroke="#ffffff" stroke-width="1"/>
    <line x1="0" y1="270" x2="1920" y2="270" stroke="#ffffff" stroke-width="1"/>
    <line x1="0" y1="540" x2="1920" y2="540" stroke="#ffffff" stroke-width="1"/>
    <line x1="0" y1="810" x2="1920" y2="810" stroke="#ffffff" stroke-width="1"/>
    
    <!-- Abstract data visualization elements -->
    <circle cx="400" cy="400" r="80" stroke="#ffffff" stroke-width="2" fill="none"/>
    <circle cx="800" cy="300" r="120" stroke="#ffffff" stroke-width="2" fill="none"/>
    <circle cx="1200" cy="500" r="60" stroke="#ffffff" stroke-width="2" fill="none"/>
    <circle cx="1500" cy="350" r="100" stroke="#ffffff" stroke-width="2" fill="none"/>
    
    <!-- Connecting lines (like network graph) -->
    <line x1="400" y1="400" x2="800" y2="300" stroke="#ffffff" stroke-width="1.5"/>
    <line x1="800" y1="300" x2="1200" y2="500" stroke="#ffffff" stroke-width="1.5"/>
    <line x1="1200" y1="500" x2="1500" y2="350" stroke="#ffffff" stroke-width="1.5"/>
    <line x1="400" y1="400" x2="1200" y2="500" stroke="#ffffff" stroke-width="1"/>
    
    <!-- Bar chart elements -->
    <rect x="200" y="700" width="80" height="200" fill="#ffffff"/>
    <rect x="320" y="600" width="80" height="300" fill="#ffffff"/>
    <rect x="440" y="650" width="80" height="250" fill="#ffffff"/>
    <rect x="560" y="550" width="80" height="350" fill="#ffffff"/>
    
    <!-- Line chart path -->
    <path d="M 1000 800 L 1100 750 L 1200 780 L 1300 700 L 1400 720 L 1500 650 L 1600 680 L 1700 600" 
          stroke="#ffffff" stroke-width="3" fill="none"/>
    
    <!-- Data points on line chart -->
    <circle cx="1000" cy="800" r="6" fill="#ffffff"/>
    <circle cx="1100" cy="750" r="6" fill="#ffffff"/>
    <circle cx="1200" cy="780" r="6" fill="#ffffff"/>
    <circle cx="1300" cy="700" r="6" fill="#ffffff"/>
    <circle cx="1400" cy="720" r="6" fill="#ffffff"/>
    <circle cx="1500" cy="650" r="6" fill="#ffffff"/>
    <circle cx="1600" cy="680" r="6" fill="#ffffff"/>
    <circle cx="1700" cy="600" r="6" fill="#ffffff"/>
  </g>
</svg>
